<?xml version="1.0" standalone="no"?>
<!DOCTYPE svg PUBLIC "-//W3C//DTD SVG 20010904//EN"
 "http://www.w3.org/TR/2001/REC-SVG-20010904/DTD/svg10.dtd">
<svg version="1.0" xmlns="http://www.w3.org/2000/svg"
 width="2251.000000pt" height="2251.000000pt" viewBox="0 0 2251.000000 2251.000000"
 preserveAspectRatio="xMidYMid meet">
<metadata>
Created by potrace 1.14, written by Peter Selinger 2001-2017
</metadata>
<g transform="translate(0.000000,2251.000000) scale(0.100000,-0.100000)"
fill="#000000" stroke="none">
<path d="M5885 15925 c-316 -69 -564 -310 -648 -625 l-22 -85 0 -3465 c0
-3299 1 -3468 18 -3530 46 -166 108 -280 215 -392 89 -93 183 -158 295 -204
171 -69 -215 -64 4693 -64 l4434 0 0 -495 c0 -272 3 -495 8 -495 8 0 -59 -47
1341 925 594 413 1081 753 1081 757 0 3 -546 385 -1212 848 l-1213 842 -3
-501 -2 -501 -4063 0 c-2715 0 -4074 3 -4099 10 -21 6 -51 27 -72 50 l-36 40
0 2709 0 2708 23 33 c12 18 38 41 57 51 34 18 175 19 4578 19 4194 0 4547 -1
4579 -16 19 -9 45 -33 59 -53 l24 -36 0 -951 0 -951 -22 -33 c-13 -18 -36 -43
-51 -54 l-28 -21 -2293 -3 -2294 -2 -61 84 c-266 367 -686 572 -1131 553 -344
-14 -637 -143 -880 -387 -92 -92 -197 -225 -216 -274 -5 -14 39 -16 452 -18
l458 -3 183 -315 c100 -173 181 -322 180 -330 -1 -9 -83 -156 -182 -328 l-180
-312 -457 0 c-252 0 -458 -4 -458 -8 0 -17 84 -138 147 -214 101 -119 261
-247 398 -316 405 -204 887 -193 1267 29 163 95 337 255 429 395 l43 64 2685
2 c2538 3 2689 4 2746 21 328 97 544 313 627 627 l23 85 0 1710 0 1710 -23 85
c-87 321 -335 558 -652 625 -63 13 -687 15 -5378 14 -4357 0 -5318 -3 -5367
-14z"/>
</g>
</svg>
